{
  "accessors": [
    {
      "bufferView": 2,
      "componentType": 5126,
      "count": 44398,
      "max": [
        300.3197021484375,
        321.050048828125,
        1418.59814453125
      ],
      "min": [
        -329.6776123046875,
        -308.982666015625,
        -28.56695556640625
      ],
      "type": "VEC3"
    },
    {
      "bufferView": 2,
      "byteOffset": 532776,
      "componentType": 5126,
      "count": 44398,
      "type": "VEC3"
    },
    {
      "bufferView": 1,
      "componentType": 5126,
      "count": 44398,
      "type": "VEC2"
    },
    {
      "bufferView": 0,
      "componentType": 5125,
      "count": 133824,
      "type": "SCALAR"
    },
    {
      "bufferView": 2,
      "byteOffset": 1065552,
      "componentType": 5126,
      "count": 43372,
      "max": [
        315.578369140625,
        291.8790283203125,
        1309.536865234375
      ],
      "min": [
        -314.494384765625,
        -338.21112060546875,
        -145.60650634765625
      ],
      "type": "VEC3"
    },
    {
      "bufferView": 2,
      "byteOffset": 1586016,
      "componentType": 5126,
      "count": 43372,
      "type": "VEC3"
    },
    {
      "bufferView": 1,
      "byteOffset": 355184,
      "componentType": 5126,
      "count": 43372,
      "type": "VEC2"
    },
    {
      "bufferView": 0,
      "byteOffset": 535296,
      "componentType": 5125,
      "count": 138912,
      "type": "SCALAR"
    },
    {
      "bufferView": 2,
      "byteOffset": 2106480,
      "componentType": 5126,
      "count": 18614,
      "max": [
        312.68377685546875,
        1589.65625,
        626.1170043945313
      ],
      "min": [
        -298.84124755859375,
        -207.5128173828125,
        14.59228515625
      ],
      "type": "VEC3"
    },
    {
      "bufferView": 2,
      "byteOffset": 2329848,
      "componentType": 5126,
      "count": 18614,
      "type": "VEC3"
    },
    {
      "bufferView": 1,
      "byteOffset": 702160,
      "componentType": 5126,
      "count": 18614,
      "type": "VEC2"
    },
    {
      "bufferView": 0,
      "byteOffset": 1090944,
      "componentType": 5125,
      "count": 64560,
      "type": "SCALAR"
    },
    {
      "bufferView": 2,
      "byteOffset": 2553216,
      "componentType": 5126,
      "count": 12158,
      "max": [
        80.87995910644531,
        131.300048828125,
        209.26304626464844
      ],
      "min": [
        -101.05360412597656,
        -106.0015640258789,
        -0.028361497446894646
      ],
      "type": "VEC3"
    },
    {
      "bufferView": 2,
      "byteOffset": 2699112,
      "componentType": 5126,
      "count": 12158,
      "type": "VEC3"
    },
    {
      "bufferView": 1,
      "byteOffset": 851072,
      "componentType": 5126,
      "count": 12158,
      "type": "VEC2"
    },
    {
      "bufferView": 0,
      "byteOffset": 1349184,
      "componentType": 5125,
      "count": 36198,
      "type": "SCALAR"
    },
    {
      "bufferView": 2,
      "byteOffset": 2845008,
      "componentType": 5126,
      "count": 736,
      "max": [
        75.57719421386719,
        9.194469451904297,
        131.74859619140625
      ],
      "min": [
        -95.75083923339844,
        -103.84008026123047,
        49.56410217285156
      ],
      "type": "VEC3"
    },
    {
      "bufferView": 2,
      "byteOffset": 2853840,
      "componentType": 5126,
      "count": 736,
      "type": "VEC3"
    },
    {
      "bufferView": 1,
      "byteOffset": 948336,
      "componentType": 5126,
      "count": 736,
      "type": "VEC2"
    },
    {
      "bufferView": 0,
      "byteOffset": 1493976,
      "componentType": 5125,
      "count": 3240,
      "type": "SCALAR"
    },
    {
      "bufferView": 2,
      "byteOffset": 2862672,
      "componentType": 5126,
      "count": 17456,
      "max": [
        0.856201171875,
        595.8426513671875,
        577.1495971679688
      ],
      "min": [
        -393.48736572265625,
        -1332.0416259765625,
        155.2808380126953
      ],
      "type": "VEC3"
    },
    {
      "bufferView": 2,
      "byteOffset": 3072144,
      "componentType": 5126,
      "count": 17456,
      "type": "VEC3"
    },
    {
      "bufferView": 1,
      "byteOffset": 954224,
      "componentType": 5126,
      "count": 17456,
      "type": "VEC2"
    },
    {
      "bufferView": 0,
      "byteOffset": 1506936,
      "componentType": 5125,
      "count": 96072,
      "type": "SCALAR"
    },
    {
      "bufferView": 2,
      "byteOffset": 3281616,
      "componentType": 5126,
      "count": 47791,
      "max": [
        539.722412109375,
        2918.206787109375,
        1078.87109375
      ],
      "min": [
        -932.353515625,
        -1350.702392578125,
        10.4161376953125
      ],
      "type": "VEC3"
    },
    {
      "bufferView": 2,
      "byteOffset": 3855108,
      "componentType": 5126,
      "count": 47791,
      "type": "VEC3"
    },
    {
      "bufferView": 1,
      "byteOffset": 1093872,
      "componentType": 5126,
      "count": 47791,
      "type": "VEC2"
    },
    {
      "bufferView": 0,
      "byteOffset": 1891224,
      "componentType": 5125,
      "count": 253632,
      "type": "SCALAR"
    },
    {
      "bufferView": 2,
      "byteOffset": 4428600,
      "componentType": 5126,
      "count": 65532,
      "max": [
        470.0024108886719,
        2339.40576171875,
        1190.681640625
      ],
      "min": [
        -898.11181640625,
        -1957.848876953125,
        18.927001953125
      ],
      "type": "VEC3"
    },
    {
      "bufferView": 2,
      "byteOffset": 5214984,
      "componentType": 5126,
      "count": 65532,
      "type": "VEC3"
    },
    {
      "bufferView": 1,
      "byteOffset": 1476200,
      "componentType": 5126,
      "count": 65532,
      "type": "VEC2"
    },
    {
      "bufferView": 0,
      "byteOffset": 2905752,
      "componentType": 5125,
      "count": 177798,
      "type": "SCALAR"
    },
    {
      "bufferView": 2,
      "byteOffset": 6001368,
      "componentType": 5126,
      "count": 65533,
      "max": [
        580.7322998046875,
        2339.40576171875,
        1181.9052734375
      ],
      "min": [
        -823.1748657226563,
        -1958.1854248046875,
        18.927001953125
      ],
      "type": "VEC3"
    },
    {
      "bufferView": 2,
      "byteOffset": 6787764,
      "componentType": 5126,
      "count": 65533,
      "type": "VEC3"
    },
    {
      "bufferView": 1,
      "byteOffset": 2000456,
      "componentType": 5126,
      "count": 65533,
      "type": "VEC2"
    },
    {
      "bufferView": 0,
      "byteOffset": 3616944,
      "componentType": 5125,
      "count": 182496,
      "type": "SCALAR"
    },
    {
      "bufferView": 2,
      "byteOffset": 7574160,
      "componentType": 5126,
      "count": 8928,
      "max": [
        -167.17929077148438,
        1976.06591796875,
        967.5659790039063
      ],
      "min": [
        -865.9019775390625,
        -1735.902099609375,
        35.30474853515625
      ],
      "type": "VEC3"
    },
    {
      "bufferView": 2,
      "byteOffset": 7681296,
      "componentType": 5126,
      "count": 8928,
      "type": "VEC3"
    },
    {
      "bufferView": 1,
      "byteOffset": 2524720,
      "componentType": 5126,
      "count": 8928,
      "type": "VEC2"
    },
    {
      "bufferView": 0,
      "byteOffset": 4346928,
      "componentType": 5125,
      "count": 24177,
      "type": "SCALAR"
    },
    {
      "bufferView": 2,
      "byteOffset": 7788432,
      "componentType": 5126,
      "count": 63211,
      "max": [
        190.5399169921875,
        229.342041015625,
        869.904541015625
      ],
      "min": [
        -186.42063903808594,
        -945.2672729492188,
        81.47021484375
      ],
      "type": "VEC3"
    },
    {
      "bufferView": 2,
      "byteOffset": 8546964,
      "componentType": 5126,
      "count": 63211,
      "type": "VEC3"
    },
    {
      "bufferView": 1,
      "byteOffset": 2596144,
      "componentType": 5126,
      "count": 63211,
      "type": "VEC2"
    },
    {
      "bufferView": 0,
      "byteOffset": 4443636,
      "componentType": 5125,
      "count": 244170,
      "type": "SCALAR"
    }
  ],
  "asset": {
    "generator": "fab-model-conversion",
    "version": "2.0"
  },
  "bufferViews": [
    {
      "buffer": 0,
      "byteLength": 5420316,
      "target": 34963
    },
    {
      "buffer": 0,
      "byteLength": 3101832,
      "byteOffset": 5420316,
      "byteStride": 8,
      "target": 34962
    },
    {
      "buffer": 0,
      "byteLength": 9305496,
      "byteOffset": 8522148,
      "byteStride": 12,
      "target": 34962
    }
  ],
  "buffers": [
    {
      "byteLength": 17827644,
      "uri": "scene.bin"
    }
  ],
  "extensionsUsed": [
    "KHR_materials_specular"
  ],
  "materials": [
    {
      "doubleSided": true,
      "extensions": {
        "KHR_materials_specular": {
          "specularFactor": 1
        }
      },
      "name": "05_-_Default",
      "pbrMetallicRoughness": {
        "baseColorFactor": [
          0.5275912940122832,
          0.4711642363910641,
          0.4711642363910641,
          1.0
        ],
        "roughnessFactor": 0.27439394864169037
      }
    }
  ],
  "meshes": [
    {
      "name": "Front wheel_05 - Default_0",
      "primitives": [
        {
          "attributes": {
            "NORMAL": 1,
            "POSITION": 0,
            "TEXCOORD_0": 2
          },
          "indices": 3,
          "material": 0,
          "mode": 4
        }
      ]
    },
    {
      "name": "Rear wheel_05 - Default_0",
      "primitives": [
        {
          "attributes": {
            "NORMAL": 5,
            "POSITION": 4,
            "TEXCOORD_0": 6
          },
          "indices": 7,
          "material": 0,
          "mode": 4
        }
      ]
    },
    {
      "name": "Engine_05 - Default_0",
      "primitives": [
        {
          "attributes": {
            "NORMAL": 9,
            "POSITION": 8,
            "TEXCOORD_0": 10
          },
          "indices": 11,
          "material": 0,
          "mode": 4
        }
      ]
    },
    {
      "name": "Box005_05 - Default_0",
      "primitives": [
        {
          "attributes": {
            "NORMAL": 13,
            "POSITION": 12,
            "TEXCOORD_0": 14
          },
          "indices": 15,
          "material": 0,
          "mode": 4
        }
      ]
    },
    {
      "name": "Helmet_05 - Default_0",
      "primitives": [
        {
          "attributes": {
            "NORMAL": 17,
            "POSITION": 16,
            "TEXCOORD_0": 18
          },
          "indices": 19,
          "material": 0,
          "mode": 4
        }
      ]
    },
    {
      "name": "Glass_05 - Default_0",
      "primitives": [
        {
          "attributes": {
            "NORMAL": 21,
            "POSITION": 20,
            "TEXCOORD_0": 22
          },
          "indices": 23,
          "material": 0,
          "mode": 4
        }
      ]
    },
    {
      "name": "Skin_05 - Default_0",
      "primitives": [
        {
          "attributes": {
            "NORMAL": 25,
            "POSITION": 24,
            "TEXCOORD_0": 26
          },
          "indices": 27,
          "material": 0,
          "mode": 4
        }
      ]
    },
    {
      "name": "cage_05 - Default_0",
      "primitives": [
        {
          "attributes": {
            "NORMAL": 29,
            "POSITION": 28,
            "TEXCOORD_0": 30
          },
          "indices": 31,
          "material": 0,
          "mode": 4
        }
      ]
    },
    {
      "name": "cage_05 - Default_0",
      "primitives": [
        {
          "attributes": {
            "NORMAL": 33,
            "POSITION": 32,
            "TEXCOORD_0": 34
          },
          "indices": 35,
          "material": 0,
          "mode": 4
        }
      ]
    },
    {
      "name": "cage_05 - Default_0",
      "primitives": [
        {
          "attributes": {
            "NORMAL": 37,
            "POSITION": 36,
            "TEXCOORD_0": 38
          },
          "indices": 39,
          "material": 0,
          "mode": 4
        }
      ]
    },
    {
      "name": "mannaquin_05 - Default_0",
      "primitives": [
        {
          "attributes": {
            "NORMAL": 41,
            "POSITION": 40,
            "TEXCOORD_0": 42
          },
          "indices": 43,
          "material": 0,
          "mode": 4
        }
      ]
    }
  ],
  "nodes": [
    {
      "children": [
        1
      ],
      "matrix": [
        1.0,
        0.0,
        0.0,
        0.0,
        0.0,
        2.220446049250313e-16,
        -1.0,
        0.0,
        0.0,
        1.0,
        2.220446049250313e-16,
        0.0,
        0.0,
        0.0,
        0.0,
        1.0
      ],
      "name": "Sketchfab_model"
    },
    {
      "children": [
        2
      ],
      "matrix": [
        1.0,
        0.0,
        0.0,
        0.0,
        0.0,
        0.0,
        1.0,
        0.0,
        0.0,
        -1.0,
        0.0,
        0.0,
        0.0,
        0.0,
        0.0,
        1.0
      ],
      "name": "59823de7fccf4d0fbaa017915ec3a103.fbx"
    },
    {
      "children": [
        3
      ],
      "name": "RootNode"
    },
    {
      "children": [
        4,
        7,
        10,
        12,
        15,
        18,
        21,
        24,
        29
      ],
      "matrix": [
        0.9999999999999847,
        3.970466940254533e-23,
        -1.7484555314694902e-07,
        0.0,
        -1.7484555314694902e-07,
        3.3306690738754696e-16,
        -0.9999999999999847,
        0.0,
        3.970466940254533e-23,
        1.0,
        3.3306690738754696e-16,
        0.0,
        -35.127220153808594,
        594.568115234375,
        -40.498046875,
        1.0
      ],
      "name": "F1 Car"
    },
    {
      "children": [
        5
      ],
      "matrix": [
        -1.6292068516499114e-07,
        -0.9999999999999869,
        0.0,
        0.0,
        -1.629206849984577e-07,
        2.6423307986078726e-14,
        0.9999999999999869,
        0.0,
        -0.9999999999999736,
        1.629206849984577e-07,
        -1.6292068516499114e-07,
        0.0,
        -1.52587890625e-05,
        -1135.8414306640625,
        -277.6396179199219,
        1.0
      ],
      "name": "Front wheel"
    },
    {
      "children": [
        6
      ],
      "matrix": [
        1.0,
        0.0,
        -0.0,
        0.0,
        0.0,
        1.0,
        0.0,
        0.0,
        0.0,
        0.0,
        1.0,
        0.0,
        14.678841590881348,
        -6.033721923828125,
        -695.015625,
        1.0
      ],
      "name": "Object_5"
    },
    {
      "mesh": 0,
      "name": "Front wheel_05 - Default_0"
    },
    {
      "children": [
        8
      ],
      "matrix": [
        -1.6292068516499114e-07,
        -0.9999999999999869,
        0.0,
        0.0,
        -1.629206849984577e-07,
        2.6423307986078726e-14,
        0.9999999999999869,
        0.0,
        -0.9999999999999736,
        1.629206849984577e-07,
        -1.6292068516499114e-07,
        0.0,
        -1.52587890625e-05,
        1464.6923828125,
        -254.47503662109375,
        1.0
      ],
      "name": "Rear wheel"
    },
    {
      "children": [
        9
      ],
      "matrix": [
        1.0,
        0.0,
        -0.0,
        0.0,
        0.0,
        1.0,
        0.0,
        0.0,
        0.0,
        0.0,
        1.0,
        0.0,
        -9.481416782364249e-05,
        -2.5438506781938486e-05,
        -581.9652099609375,
        1.0
      ],
      "name": "Object_8"
    },
    {
      "mesh": 1,
      "name": "Rear wheel_05 - Default_0"
    },
    {
      "children": [
        11
      ],
      "matrix": [
        1.0,
        0.0,
        -1.469367938527859e-39,
        0.0,
        -1.8111358157653417e-71,
        1.0,
        -1.2325951644078307e-32,
        0.0,
        1.469367938527859e-39,
        1.2325951644078307e-32,
        1.0,
        0.0,
        -7.1917724609375,
        270.3118896484375,
        -597.9954833984375,
        1.0
      ],
      "name": "Engine"
    },
    {
      "mesh": 2,
      "name": "Engine_05 - Default_0"
    },
    {
      "children": [
        13
      ],
      "matrix": [
        1.0,
        0.0,
        -1.469367938527859e-39,
        0.0,
        -1.8111358157653417e-71,
        1.0,
        -1.2325951644078307e-32,
        0.0,
        1.469367938527859e-39,
        1.2325951644078307e-32,
        1.0,
        0.0,
        1.52587890625e-05,
        21.452987670898438,
        82.9993896484375,
        1.0
      ],
      "name": "Box005"
    },
    {
      "children": [
        14
      ],
      "matrix": [
        1.0,
        0.0,
        -0.0,
        0.0,
        0.0,
        1.0,
        0.0,
        0.0,
        0.0,
        0.0,
        1.0,
        0.0,
        10.086822509765625,
        0.0,
        0.0,
        1.0
      ],
      "name": "Object_13"
    },
    {
      "mesh": 3,
      "name": "Box005_05 - Default_0"
    },
    {
      "children": [
        16
      ],
      "matrix": [
        1.0,
        0.0,
        -1.469367938527859e-39,
        0.0,
        -1.8111358157653417e-71,
        1.0,
        -1.2325951644078307e-32,
        0.0,
        1.469367938527859e-39,
        1.2325951644078307e-32,
        1.0,
        0.0,
        1.52587890625e-05,
        21.452987670898438,
        82.9993896484375,
        1.0
      ],
      "name": "Helmet"
    },
    {
      "children": [
        17
      ],
      "matrix": [
        1.0,
        0.0,
        -0.0,
        0.0,
        0.0,
        1.0,
        0.0,
        0.0,
        0.0,
        0.0,
        1.0,
        0.0,
        10.086822509765625,
        0.0,
        0.0,
        1.0
      ],
      "name": "Object_16"
    },
    {
      "mesh": 4,
      "name": "Helmet_05 - Default_0"
    },
    {
      "children": [
        19
      ],
      "matrix": [
        1.0,
        0.0,
        -1.469367938527859e-39,
        0.0,
        -1.8111358157653417e-71,
        1.0,
        -1.2325951644078307e-32,
        0.0,
        1.469367938527859e-39,
        1.2325951644078307e-32,
        1.0,
        0.0,
        0.000514984130859375,
        -795.7664184570313,
        -597.9954833984375,
        1.0
      ],
      "name": "Glass"
    },
    {
      "children": [
        20
      ],
      "matrix": [
        1.0,
        0.0,
        -0.0,
        0.0,
        0.0,
        1.0,
        0.0,
        0.0,
        0.0,
        0.0,
        1.0,
        0.0,
        196.31558227539063,
        0.0,
        0.0,
        1.0
      ],
      "name": "Object_19"
    },
    {
      "mesh": 5,
      "name": "Glass_05 - Default_0"
    },
    {
      "children": [
        22
      ],
      "matrix": [
        1.0,
        0.0,
        -1.469367938527859e-39,
        0.0,
        -1.8111358157653417e-71,
        1.0,
        -1.2325951644078307e-32,
        0.0,
        1.469367938527859e-39,
        1.2325951644078307e-32,
        1.0,
        0.0,
        0.00048828125,
        -795.7664184570313,
        -597.9954833984375,
        1.0
      ],
      "name": "Skin"
    },
    {
      "children": [
        23
      ],
      "matrix": [
        1.0,
        0.0,
        -0.0,
        0.0,
        0.0,
        1.0,
        0.0,
        0.0,
        0.0,
        0.0,
        1.0,
        0.0,
        196.31558227539063,
        0.0,
        0.0,
        1.0
      ],
      "name": "Object_22"
    },
    {
      "mesh": 6,
      "name": "Skin_05 - Default_0"
    },
    {
      "children": [
        25
      ],
      "matrix": [
        1.0,
        0.0,
        -1.469367938527859e-39,
        0.0,
        -1.8111358157653417e-71,
        1.0,
        -1.2325951644078307e-32,
        0.0,
        1.469367938527859e-39,
        1.2325951644078307e-32,
        1.0,
        0.0,
        1.9073486328125e-05,
        -190.6102294921875,
        -597.9954833984375,
        1.0
      ],
      "name": "cage"
    },
    {
      "children": [
        26,
        27,
        28
      ],
      "matrix": [
        1.0,
        0.0,
        -0.0,
        0.0,
        0.0,
        1.0,
        0.0,
        0.0,
        0.0,
        0.0,
        1.0,
        0.0,
        158.68975830078125,
        0.0,
        0.0,
        1.0
      ],
      "name": "Object_25"
    },
    {
      "mesh": 7,
      "name": "cage_05 - Default_0"
    },
    {
      "mesh": 8,
      "name": "cage_05 - Default_0"
    },
    {
      "mesh": 9,
      "name": "cage_05 - Default_0"
    },
    {
      "children": [
        30
      ],
      "matrix": [
        1.0,
        0.0,
        -1.469367938527859e-39,
        0.0,
        -1.8111358157653417e-71,
        1.0,
        -1.2325951644078307e-32,
        0.0,
        1.469367938527859e-39,
        1.2325951644078307e-32,
        1.0,
        0.0,
        7.363067626953125,
        -103.151611328125,
        -594.568115234375,
        1.0
      ],
      "name": "mannaquin"
    },
    {
      "mesh": 10,
      "name": "mannaquin_05 - Default_0"
    }
  ],
  "scene": 0,
  "scenes": [
    {
      "name": "Sketchfab_Scene",
      "nodes": [
        0
      ]
    }
  ]
}
