{
  "accessors": [
    {
      "bufferView": 2,
      "componentType": 5126,
      "count": 384,
      "max": [
        0.9600000381469727,
        3.4713425636291504,
        0.8475754857063293
      ],
      "min": [
        -0.9600000381469727,
        -3.623141050338745,
        -0.11800000071525574
      ],
      "type": "VEC3"
    },
    {
      "bufferView": 2,
      "byteOffset": 4608,
      "componentType": 5126,
      "count": 384,
      "type": "VEC3"
    },
    {
      "bufferView": 3,
      "componentType": 5126,
      "count": 384,
      "type": "VEC4"
    },
    {
      "bufferView": 1,
      "componentType": 5126,
      "count": 384,
      "type": "VEC2"
    },
    {
      "bufferView": 1,
      "byteOffset": 3072,
      "componentType": 5126,
      "count": 384,
      "type": "VEC2"
    },
    {
      "bufferView": 1,
      "byteOffset": 6144,
      "componentType": 5126,
      "count": 384,
      "type": "VEC2"
    },
    {
      "bufferView": 0,
      "componentType": 5125,
      "count": 1512,
      "type": "SCALAR"
    },
    {
      "bufferView": 2,
      "byteOffset": 9216,
      "componentType": 5126,
      "count": 3914,
      "max": [
        1.0842558145523071,
        3.697507619857788,
        2.735670804977417
      ],
      "min": [
        -1.0842556953430176,
        -3.031765937805176,
        -2.811542272567749
      ],
      "type": "VEC3"
    },
    {
      "bufferView": 2,
      "byteOffset": 56184,
      "componentType": 5126,
      "count": 3914,
      "type": "VEC3"
    },
    {
      "bufferView": 3,
      "byteOffset": 6144,
      "componentType": 5126,
      "count": 3914,
      "type": "VEC4"
    },
    {
      "bufferView": 1,
      "byteOffset": 9216,
      "componentType": 5126,
      "count": 3914,
      "type": "VEC2"
    },
    {
      "bufferView": 1,
      "byteOffset": 40528,
      "componentType": 5126,
      "count": 3914,
      "type": "VEC2"
    },
    {
      "bufferView": 1,
      "byteOffset": 71840,
      "componentType": 5126,
      "count": 3914,
      "type": "VEC2"
    },
    {
      "bufferView": 0,
      "byteOffset": 6048,
      "componentType": 5125,
      "count": 16344,
      "type": "SCALAR"
    }
  ],
  "asset": {
    "version": "2.0"
  },
  "bufferViews": [
    {
      "buffer": 0,
      "byteLength": 71424,
      "target": 34963
    },
    {
      "buffer": 0,
      "byteLength": 103152,
      "byteOffset": 71424,
      "byteStride": 8,
      "target": 34962
    },
    {
      "buffer": 0,
      "byteLength": 103152,
      "byteOffset": 174576,
      "byteStride": 12,
      "target": 34962
    },
    {
      "buffer": 0,
      "byteLength": 68768,
      "byteOffset": 277728,
      "byteStride": 16,
      "target": 34962
    }
  ],
  "buffers": [
    {
      "byteLength": 346496,
      "uri": "scene.bin"
    }
  ],
  "images": [
    {
      "uri": "textures/Deer_Toy_BaseColor.jpeg"
    },
    {
      "uri": "textures/Deer_Toy_ORM.jpeg"
    },
    {
      "uri": "textures/Deer_Toy_Normal.jpeg"
    }
  ],
  "materials": [
    {
      "doubleSided": true,
      "name": "Deer_Toy",
      "normalTexture": {
        "index": 2
      },
      "pbrMetallicRoughness": {
        "baseColorFactor": [
          0.800000012,
          0.800000012,
          0.800000012,
          1.0
        ],
        "baseColorTexture": {
          "index": 0
        },
        "metallicFactor": 0.0,
        "metallicRoughnessTexture": {
          "index": 1
        }
      }
    }
  ],
  "meshes": [
    {
      "name": "Plane_Deer Toy_0",
      "primitives": [
        {
          "attributes": {
            "NORMAL": 1,
            "POSITION": 0,
            "TANGENT": 2,
            "TEXCOORD_0": 3,
            "TEXCOORD_1": 4,
            "TEXCOORD_2": 5
          },
          "indices": 6,
          "material": 0,
          "mode": 4
        }
      ]
    },
    {
      "name": "Plane.004_Deer Toy_0",
      "primitives": [
        {
          "attributes": {
            "NORMAL": 8,
            "POSITION": 7,
            "TANGENT": 9,
            "TEXCOORD_0": 10,
            "TEXCOORD_1": 11,
            "TEXCOORD_2": 12
          },
          "indices": 13,
          "material": 0,
          "mode": 4
        }
      ]
    }
  ],
  "nodes": [
    {
      "children": [
        1
      ],
      "matrix": [
        1.0,
        0.0,
        0.0,
        0.0,
        0.0,
        2.220446049250313e-16,
        -1.0,
        0.0,
        0.0,
        1.0,
        2.220446049250313e-16,
        0.0,
        0.0,
        0.0,
        0.0,
        1.0
      ],
      "name": "Sketchfab_model"
    },
    {
      "children": [
        2
      ],
      "matrix": [
        0.009999999776482582,
        0.0,
        0.0,
        0.0,
        0.0,
        0.0,
        0.009999999776482582,
        0.0,
        0.0,
        -0.009999999776482582,
        0.0,
        0.0,
        0.0,
        0.0,
        0.0,
        1.0
      ],
      "name": "deer_toy.fbx"
    },
    {
      "children": [
        3
      ],
      "name": "RootNode"
    },
    {
      "children": [
        4,
        6
      ],
      "matrix": [
        480.0000305175781,
        0.0,
        0.0,
        0.0,
        0.0,
        -7.820193108002365e-05,
        -480.00003051757176,
        0.0,
        0.0,
        480.00003051757176,
        -7.820193108002365e-05,
        0.0,
        0.0,
        0.0,
        0.0,
        1.0
      ],
      "name": "Empty"
    },
    {
      "children": [
        5
      ],
      "matrix": [
        0.20833329856395574,
        -2.4835264511580082e-08,
        7.88860905221012e-31,
        0.0,
        2.4835264511580082e-08,
        0.20833329856395574,
        -6.617444900424223e-24,
        0.0,
        3.9411512731628576e-45,
        6.61744490042427e-24,
        0.20833329856395721,
        0.0,
        0.0,
        4.1359030627651384e-25,
        0.02083333395421505,
        1.0
      ],
      "name": "Plane"
    },
    {
      "mesh": 0,
      "name": "Plane_Deer Toy_0"
    },
    {
      "children": [
        7
      ],
      "matrix": [
        0.20833329856395721,
        0.0,
        0.0,
        0.0,
        0.0,
        -3.394180254198116e-08,
        0.20833329856395447,
        0.0,
        0.0,
        -0.20833329856395447,
        -3.394180254198116e-08,
        0.0,
        -1.8358779041608143e-17,
        -0.15361692011356354,
        0.6502304077148438,
        1.0
      ],
      "name": "Plane.004"
    },
    {
      "mesh": 1,
      "name": "Plane.004_Deer Toy_0"
    }
  ],
  "samplers": [
    {
      "magFilter": 9729,
      "minFilter": 9987,
      "wrapS": 10497,
      "wrapT": 10497
    }
  ],
  "scene": 0,
  "scenes": [
    {
      "name": "Sketchfab_Scene",
      "nodes": [
        0
      ]
    }
  ],
  "textures": [
    {
      "sampler": 0,
      "source": 0
    },
    {
      "sampler": 0,
      "source": 1
    },
    {
      "sampler": 0,
      "source": 2
    }
  ]
}
